<?xml version="1.0" encoding="UTF-8"?>
<svg width="40px" height="40px" viewBox="0 0 40 40" version="1.1" xmlns="http://www.w3.org/2000/svg" xmlns:xlink="http://www.w3.org/1999/xlink">
    <!-- Generator: Sketch 48.2 (47327) - http://www.bohemiancoding.com/sketch -->
    <title>Team icon Copy 4</title>
    <desc>Created with Sketch.</desc>
    <defs></defs>
    <g id="Page-1" stroke="none" stroke-width="1" fill="none" fill-rule="evenodd">
        <g id="Team-icon-Copy-4">
            <path d="M12.0386371,24.6986191 C12.3763536,22.2514639 14.8925826,20.25916 18.1891359,19.7164385 C18.413509,19.53487 18.6162513,19.3533263 18.6162513,19.1939632 C18.6162513,18.5733578 17.9307979,18.1861874 17.8036637,17.9563824 C16.717167,17.0841857 16,15.5834709 16,13.8784662 C16,11.1841637 17.790861,9 20,9 C22.209139,9 24,11.1841637 24,13.8784662 C24,15.5834709 23.282833,17.0841857 22.1963363,17.9563824 C22.0692021,18.1861874 21.3837487,18.5733578 21.3837487,19.1939632 C21.3837487,19.3509396 21.597334,19.5344394 21.8286714,19.7193856 C25.0436191,20.2542189 27.5127287,22.1684058 27.9357698,24.5369063 C24.783419,24.3538971 22.804829,24.5082616 22,25 C20.4070774,25.9732516 21.4697536,26.8769408 20,26.8769408 C18.5302464,26.8769408 19.6604276,25.9685042 18,25 C17.4190375,24.6611327 15.4319165,24.5606724 12.0386371,24.6986191 Z" id="User-Icon" fill="#F5F5F5"></path>
            <g id="Group" transform="translate(8.000000, 26.000000)">
                <path d="M10.3726554,1.5 L3.5,1.5 C2.3954305,1.5 1.5,2.3954305 1.5,3.5 C1.5,4.6045695 2.3954305,5.5 3.5,5.5 L10.3726554,5.5 C9.74018229,6.40674205 8.68937256,7 7.5,7 L3.5,7 C1.56700338,7 6.80813023e-16,5.43299662 4.4408921e-16,3.5 C2.07365397e-16,1.56700338 1.56700338,7.99174929e-16 3.5,4.4408921e-16 L7.5,4.4408921e-16 C8.68937256,2.25605016e-16 9.74018229,0.593257951 10.3726554,1.5 Z M13.6273446,5.5 L20.5,5.5 C21.6045695,5.5 22.5,4.6045695 22.5,3.5 C22.5,2.3954305 21.6045695,1.5 20.5,1.5 L13.6273446,1.5 C14.2598177,0.593257951 15.3106274,6.62573404e-16 16.5,4.4408921e-16 L20.5,4.4408921e-16 C22.4329966,8.90034905e-17 24,1.56700338 24,3.5 C24,5.43299662 22.4329966,7 20.5,7 L16.5,7 C15.3106274,7 14.2598177,6.40674205 13.6273446,5.5 Z" id="Combined-Shape" fill="#F5F5F5"></path>
                <rect id="Rectangle-5" stroke="#F5F5F5" x="7" y="3" width="9.5" height="1" rx="0.5"></rect>
            </g>
        </g>
    </g>
</svg>