<?xml version="1.0" encoding="UTF-8"?>
<svg width="600px" height="117px" viewBox="0 0 600 117" version="1.1" xmlns="http://www.w3.org/2000/svg" xmlns:xlink="http://www.w3.org/1999/xlink">
    <!-- Generator: Sketch 47.1 (45422) - http://www.bohemiancoding.com/sketch -->
    <title>kryptonite-logo-green-on-white</title>
    <desc>Created with Sketch.</desc>
    <defs></defs>
    <g id="kryptonite_by_kryptco" stroke="none" stroke-width="1" fill="none" fill-rule="evenodd">
        <g id="kryptonite-logo-green-on-white" fill-rule="nonzero">
            <g id="Group-8" transform="translate(135.845347, 14.547837)">
                <path d="M0.0393184797,7.70642202 L11.7562254,7.70642202 L11.7562254,28.7024902 L11.9921363,28.7024902 L27.1690695,7.70642202 L39.9082569,7.70642202 L24.5740498,28.1520315 L41.4023591,58.9777195 L28.5845347,58.9777195 L17.7326343,37.3525557 L11.7562254,45.2162516 L11.7562254,58.9777195 L0.0393184797,58.9777195 L0.0393184797,7.70642202 Z M50.9960682,19.9737877 L60.4325033,19.9737877 L61.3761468,28.4665793 L61.6120577,28.4665793 C63.551779,25.2686603 65.8846522,22.8964691 68.6107471,21.3499345 C71.3368419,19.8033999 74.2725924,19.0301442 77.4180865,19.0301442 C79.1481083,19.0301442 80.5504533,19.1612045 81.6251638,19.423329 C82.6998743,19.6854535 83.8138868,20.0786343 84.9672346,20.6028834 L82.6081258,30.2752294 C81.4023531,29.908255 80.3145527,29.6330284 79.344692,29.4495413 C78.3748313,29.2660541 77.1559706,29.1743119 75.6880734,29.1743119 C73.2765279,29.1743119 70.9043367,29.8820375 68.5714286,31.2975098 C66.2385204,32.7129822 64.233298,35.1769156 62.5557012,38.689384 L62.5557012,58.9777195 L50.9960682,58.9777195 L50.9960682,19.9737877 Z M96.3695937,64.6395806 C97.3656668,64.95413 98.3879371,65.1114024 99.4364351,65.1114024 C101.690706,65.1114024 103.46002,64.6395853 104.74443,63.6959371 C106.02884,62.7522889 106.98558,61.5203221 107.614679,60 L108.401048,57.9554391 L91.4941022,19.9737877 L102.975098,19.9737877 L109.501966,36.72346 C110.235914,38.5583316 110.917428,40.4587058 111.546527,42.4246396 C112.175625,44.3905734 112.804715,46.3957958 113.433814,48.440367 L113.748362,48.440367 C114.272611,46.5006456 114.849276,44.5478473 115.478375,42.5819135 C116.107473,40.6159797 116.710351,38.6631814 117.287025,36.72346 L123.027523,19.9737877 L133.95806,19.9737877 L118.545216,59.3709043 C117.601568,61.8348747 116.579298,63.9973695 115.478375,65.8584535 C114.377452,67.7195375 113.119273,69.2660489 111.703801,70.4980341 C110.288329,71.7300193 108.650075,72.6605473 106.788991,73.2896461 C104.927907,73.918745 102.765412,74.2332896 100.301442,74.2332896 C99.148094,74.2332896 98.0733995,74.1677595 97.0773263,74.0366972 C96.0812532,73.905635 95.1638312,73.7090446 94.3250328,73.4469201 L96.3695937,64.6395806 Z M153.460026,62.0445609 L153.460026,73.4469201 L141.900393,73.4469201 L141.900393,19.9737877 L151.336828,19.9737877 L152.201835,23.9056356 L152.437746,23.9056356 C154.010493,22.4901633 155.819125,21.3237267 157.863696,20.406291 C159.908267,19.4888552 161.97902,19.0301442 164.076016,19.0301442 C166.487562,19.0301442 168.663162,19.5019612 170.602883,20.4456094 C172.542605,21.3892577 174.193964,22.7260726 175.557012,24.4560944 C176.92006,26.1861161 177.955435,28.2699747 178.663172,30.7077326 C179.370908,33.1454906 179.724771,35.8584385 179.724771,38.8466579 C179.724771,42.2018516 179.252954,45.1769202 178.309305,47.7719528 C177.365657,50.3669855 176.107478,52.5687983 174.534731,54.3774574 C172.961984,56.1861165 171.166459,57.5622495 169.1481,58.5058978 C167.12974,59.449546 165.01967,59.921363 162.817824,59.921363 C159.252931,59.921363 156.002636,58.5059119 153.066841,55.6749672 L153.460026,62.0445609 Z M153.460026,47.8899083 C154.56095,48.8335565 155.701174,49.501964 156.880734,49.8951507 C158.060294,50.2883375 159.148095,50.4849279 160.144168,50.4849279 C162.346013,50.4849279 164.180857,49.5806119 165.648755,47.7719528 C167.116652,45.9632937 167.85059,43.0406493 167.85059,39.0039318 C167.85059,31.978995 165.465293,28.4665793 160.694626,28.4665793 C158.230656,28.4665793 155.819147,29.6723339 153.460026,32.0838794 L153.460026,47.8899083 Z M197.103539,29.017038 L187.273919,29.017038 L187.273919,20.4456094 L197.653997,19.9737877 L199.1481,9.59370904 L208.663172,9.59370904 L208.663172,19.9737877 L225.176933,19.9737877 L225.176933,29.017038 L208.663172,29.017038 L208.663172,42.6998689 C208.663172,45.6880883 209.318473,47.798159 210.629096,49.0301442 C211.939718,50.2621294 214.010471,50.8781127 216.841415,50.8781127 C218.361737,50.8781127 219.750977,50.7470524 221.009174,50.4849279 C222.267372,50.2228034 223.473127,49.8820467 224.626474,49.4626474 L226.671035,57.7981651 C224.941013,58.3224142 223.014428,58.8073372 220.891219,59.2529489 C218.76801,59.6985606 216.448243,59.921363 213.931848,59.921363 C210.838779,59.921363 208.217573,59.5019701 206.068152,58.6631717 C203.918731,57.8243733 202.175629,56.6579367 200.838794,55.163827 C199.501959,53.6697173 198.54522,51.8741913 197.968545,49.7771953 C197.391871,47.6801992 197.103539,45.3473261 197.103539,42.7785059 L197.103539,29.017038 Z M234.29882,39.4757536 C234.29882,36.2254097 234.849273,33.3289773 235.950197,30.7863696 C237.05112,28.2437619 238.532101,26.1074792 240.393185,24.3774574 C242.254269,22.6474356 244.377445,21.3237267 246.762779,20.406291 C249.148112,19.4888552 251.625151,19.0301442 254.193971,19.0301442 C256.762791,19.0301442 259.239831,19.4888552 261.625164,20.406291 C264.010497,21.3237267 266.133673,22.6474356 267.994758,24.3774574 C269.855842,26.1074792 271.336822,28.2437619 272.437746,30.7863696 C273.538669,33.3289773 274.089122,36.2254097 274.089122,39.4757536 C274.089122,42.7260975 273.538669,45.6225299 272.437746,48.1651376 C271.336822,50.7077453 269.855842,52.844028 267.994758,54.5740498 C266.133673,56.3040716 264.010497,57.6277805 261.625164,58.5452163 C259.239831,59.462652 256.762791,59.921363 254.193971,59.921363 C251.625151,59.921363 249.148112,59.462652 246.762779,58.5452163 C244.377445,57.6277805 242.254269,56.3040716 240.393185,54.5740498 C238.532101,52.844028 237.05112,50.7077453 235.950197,48.1651376 C234.849273,45.6225299 234.29882,42.7260975 234.29882,39.4757536 Z M246.173001,39.4757536 C246.173001,42.8833722 246.841409,45.5832142 248.178244,47.5753604 C249.515079,49.5675067 251.520301,50.5635649 254.193971,50.5635649 C256.867642,50.5635649 258.872863,49.5675067 260.209699,47.5753604 C261.546534,45.5832142 262.214941,42.8833722 262.214941,39.4757536 C262.214941,36.068135 261.546534,33.3682931 260.209699,31.3761468 C258.872863,29.3840005 256.867642,28.3879423 254.193971,28.3879423 C251.520301,28.3879423 249.515079,29.3840005 248.178244,31.3761468 C246.841409,33.3682931 246.173001,36.068135 246.173001,39.4757536 Z M283.44692,19.9737877 L292.883355,19.9737877 L293.748362,25.163827 L294.06291,25.163827 C295.740506,23.4862301 297.667093,22.044567 299.842726,20.8387942 C302.018359,19.6330215 304.574035,19.0301442 307.50983,19.0301442 C311.913521,19.0301442 315.137605,20.4455953 317.182176,23.27654 C319.226746,26.1074847 320.249017,29.9868692 320.249017,34.91481 L320.249017,58.9777195 L308.689384,58.9777195 L308.689384,36.4089122 C308.689384,33.7876671 308.269991,31.8741869 307.431193,30.6684142 C306.592394,29.4626414 305.098307,28.8597641 302.948886,28.8597641 C301.376139,28.8597641 300.000006,29.2005208 298.820446,29.8820446 C297.640885,30.5635683 296.369601,31.5858385 295.006553,32.948886 L295.006553,58.9777195 L283.44692,58.9777195 L283.44692,19.9737877 Z M331.179554,19.9737877 L358.387942,19.9737877 L358.387942,58.9777195 L346.828309,58.9777195 L346.828309,29.017038 L331.179554,29.017038 L331.179554,19.9737877 Z M352.096986,14.2332896 C349.842715,14.2332896 347.994765,13.6042003 346.55308,12.3460026 C345.111395,11.087805 344.390564,9.38402123 344.390564,7.23460026 C344.390564,5.08517929 345.111395,3.34207746 346.55308,2.00524246 C347.994765,0.668407471 349.842715,0 352.096986,0 C354.351257,0 356.199206,0.668407471 357.640891,2.00524246 C359.082576,3.34207746 359.803408,5.08517929 359.803408,7.23460026 C359.803408,9.38402123 359.082576,11.087805 357.640891,12.3460026 C356.199206,13.6042003 354.351257,14.2332896 352.096986,14.2332896 Z M385.832241,29.017038 L376.002621,29.017038 L376.002621,20.4456094 L386.3827,19.9737877 L387.876802,9.59370904 L397.391874,9.59370904 L397.391874,19.9737877 L413.905636,19.9737877 L413.905636,29.017038 L397.391874,29.017038 L397.391874,42.6998689 C397.391874,45.6880883 398.047176,47.798159 399.357798,49.0301442 C400.668421,50.2621294 402.739174,50.8781127 405.570118,50.8781127 C407.09044,50.8781127 408.47968,50.7470524 409.737877,50.4849279 C410.996074,50.2228034 412.201829,49.8820467 413.355177,49.4626474 L415.399738,57.7981651 C413.669716,58.3224142 411.74313,58.8073372 409.619921,59.2529489 C407.496713,59.6985606 405.176946,59.921363 402.66055,59.921363 C399.567482,59.921363 396.946276,59.5019701 394.796855,58.6631717 C392.647433,57.8243733 390.904332,56.6579367 389.567497,55.163827 C388.230662,53.6697173 387.273922,51.8741913 386.697248,49.7771953 C386.120573,47.6801992 385.832241,45.3473261 385.832241,42.7785059 L385.832241,29.017038 Z M423.656619,39.4757536 C423.656619,36.2778346 424.220178,33.4207203 425.347313,30.904325 C426.474448,28.3879298 427.981642,26.2516471 429.868938,24.4954128 C431.756235,22.7391786 433.91873,21.3892577 436.356488,20.4456094 C438.794245,19.5019612 441.323709,19.0301442 443.944954,19.0301442 C446.933173,19.0301442 449.580592,19.5019612 451.887287,20.4456094 C454.193982,21.3892577 456.107463,22.6998606 457.627785,24.3774574 C459.148107,26.0550543 460.301438,28.0340646 461.087811,30.3145478 C461.874185,32.5950311 462.267366,35.0720705 462.267366,37.7457405 C462.267366,38.7942385 462.214941,39.7902967 462.110092,40.733945 C462.005242,41.6775932 461.900394,42.3853187 461.795544,42.8571429 L435.530799,42.8571429 C435.950199,45.7929374 437.221483,47.903008 439.344692,49.1874181 C441.467901,50.4718282 443.971152,51.1140236 446.854522,51.1140236 C448.636968,51.1140236 450.327646,50.8912211 451.926606,50.4456094 C453.525565,49.9999978 455.19003,49.3315903 456.920052,48.440367 L460.694626,55.3604194 C458.492781,56.7758917 456.028847,57.8899042 453.302752,58.7024902 C450.576658,59.5150761 447.903028,59.921363 445.281782,59.921363 C442.241138,59.921363 439.410236,59.462652 436.788991,58.5452163 C434.167746,57.6277805 431.887297,56.2909655 429.947575,54.5347313 C428.007854,52.7784971 426.474448,50.6422144 425.347313,48.1258191 C424.220178,45.6094239 423.656619,42.7260975 423.656619,39.4757536 Z M451.80865,35.2293578 C451.80865,33.0275119 451.205773,31.245092 450,29.8820446 C448.794227,28.5189971 446.854535,27.8374836 444.180865,27.8374836 C442.083869,27.8374836 440.222813,28.4403609 438.597641,29.6461337 C436.972469,30.8519064 435.897775,32.7129625 435.373526,35.2293578 L451.80865,35.2293578 Z" id="Kryptonite" fill="#5BC894"></path>
                <path d="M210.668414,65.9251612 L213.892529,65.9251612 L213.892529,73.5529463 L213.813893,77.2488834 C214.731328,76.35766 215.760151,75.6499345 216.900393,75.1256855 C218.040635,74.6014364 219.174307,74.3393159 220.301442,74.3393159 C221.585852,74.3393159 222.726077,74.5686714 223.722149,75.0273893 C224.718222,75.4861071 225.550456,76.1414086 226.218873,76.9933132 C226.88729,77.8452179 227.391873,78.8674881 227.732634,80.0601547 C228.073396,81.2528212 228.243775,82.5830831 228.243775,84.0509803 C228.243775,85.6761523 228.007866,87.1309215 227.536042,88.4153316 C227.064218,89.6997417 226.428575,90.7875421 225.629096,91.6787654 C224.829616,92.5699887 223.905641,93.2449492 222.857143,93.7036671 C221.808645,94.162385 220.720844,94.3917405 219.593709,94.3917405 C218.676273,94.3917405 217.686768,94.162385 216.625164,93.7036671 C215.56356,93.2449492 214.574054,92.6093068 213.656619,91.7967208 L213.538663,91.7967208 L213.263434,93.9199187 L210.668414,93.9199187 L210.668414,65.9251612 Z M213.892529,89.4376121 C214.809965,90.250198 215.733941,90.8268633 216.664482,91.1676252 C217.595024,91.508387 218.401045,91.6787654 219.082569,91.6787654 C219.921368,91.6787654 220.694623,91.501834 221.402359,91.1479659 C222.110096,90.7940978 222.726079,90.2960687 223.250328,89.6538637 C223.774577,89.0116587 224.180863,88.2187439 224.469201,87.2750957 C224.757538,86.3314474 224.901704,85.2698591 224.901704,84.0902988 C224.901704,83.0418008 224.796855,82.0850607 224.587156,81.2200498 C224.377457,80.3550389 224.056358,79.6145483 223.623853,78.9985557 C223.191348,78.3825631 222.634342,77.9041931 221.952818,77.5634312 C221.271294,77.2226693 220.458721,77.052291 219.515072,77.052291 C218.676273,77.052291 217.77851,77.2816465 216.821756,77.7403644 C215.865002,78.1990822 214.888602,78.9264668 213.892529,79.92254 L213.892529,89.4376121 Z M233.905636,99.188595 C234.16776,99.267232 234.44954,99.3327621 234.750983,99.3851874 C235.052426,99.4376127 235.347312,99.4638244 235.635649,99.4638244 C236.972484,99.4638244 238.060284,99.0771969 238.899083,98.3039292 C239.737881,97.5306619 240.393183,96.5542628 240.865007,95.3747025 L241.454784,93.9592372 L232.529489,74.8111376 L235.792923,74.8111376 L240.471822,85.3878087 C240.838796,86.2266071 241.225424,87.1309231 241.631717,88.1007837 C242.03801,89.0706444 242.437744,90.0142785 242.830931,90.9317143 L242.988204,90.9317143 C243.328966,90.0142785 243.676276,89.0771974 244.030144,88.120443 C244.384012,87.1636885 244.718216,86.2528195 245.032765,85.3878087 L249.200524,74.8111376 L252.267366,74.8111376 L243.853211,95.4926579 C243.486237,96.4363062 243.066843,97.3144101 242.59502,98.1269961 C242.123196,98.9395822 241.559636,99.6407546 240.904325,100.230535 C240.249014,100.820315 239.495417,101.285579 238.643512,101.626341 C237.791608,101.967102 236.828315,102.137481 235.753604,102.137481 C234.809956,102.137481 233.97117,102.006421 233.237221,101.744296 L233.905636,99.188595 Z M281.952818,65.9251612 L285.176933,65.9251612 L285.176933,84.8766684 L285.334207,84.8766684 L295.635649,74.8111376 L299.331586,74.8111376 L291.703801,82.3996042 L300.353866,93.9199187 L296.736566,93.9199187 L289.698558,84.3655282 L285.176933,88.7298794 L285.176933,93.9199187 L281.952818,93.9199187 L281.952818,65.9251612 Z M307.116645,74.8111376 L309.790301,74.8111376 L310.065531,79.3327628 L310.183486,79.3327628 C311.179559,77.7862282 312.404973,76.5673675 313.859764,75.6761442 C315.314555,74.7849208 316.93315,74.3393159 318.715596,74.3393159 C319.423333,74.3393159 320.078634,74.398293 320.68152,74.516249 C321.284406,74.634205 321.887284,74.8373485 322.49017,75.1256855 L321.743119,77.9172975 C321.061595,77.6813855 320.491483,77.5110071 320.032765,77.4061573 C319.574048,77.3013075 318.964617,77.2488834 318.204456,77.2488834 C316.762771,77.2488834 315.380085,77.6617233 314.056356,78.4874155 C312.732628,79.3131077 311.494108,80.7220058 310.34076,82.714152 L310.34076,93.9199187 L307.116645,93.9199187 L307.116645,74.8111376 Z M328.269987,99.188595 C328.532111,99.267232 328.813891,99.3327621 329.115334,99.3851874 C329.416777,99.4376127 329.711663,99.4638244 330,99.4638244 C331.336835,99.4638244 332.424635,99.0771969 333.263434,98.3039292 C334.102233,97.5306619 334.757534,96.5542628 335.229358,95.3747025 L335.819135,93.9592372 L326.89384,74.8111376 L330.157274,74.8111376 L334.836173,85.3878087 C335.203147,86.2266071 335.589776,87.1309231 335.996068,88.1007837 C336.402361,89.0706444 336.802095,90.0142785 337.195282,90.9317143 L337.352556,90.9317143 C337.693317,90.0142785 338.040627,89.0771974 338.394495,88.120443 C338.748364,87.1636885 339.082567,86.2528195 339.397117,85.3878087 L343.564875,74.8111376 L346.631717,74.8111376 L338.217562,95.4926579 C337.850588,96.4363062 337.431195,97.3144101 336.959371,98.1269961 C336.487547,98.9395822 335.923988,99.6407546 335.268676,100.230535 C334.613365,100.820315 333.859768,101.285579 333.007864,101.626341 C332.155959,101.967102 331.192666,102.137481 330.117955,102.137481 C329.174307,102.137481 328.335521,102.006421 327.601573,101.744296 L328.269987,99.188595 Z M355.439056,95.5319764 L355.439056,101.980207 L352.214941,101.980207 L352.214941,74.8111376 L354.888598,74.8111376 L355.163827,77.2488834 L355.281782,77.2488834 C356.173006,76.4100849 357.201829,75.7154654 358.368283,75.1650039 C359.534738,74.6145425 360.707727,74.3393159 361.887287,74.3393159 C363.171697,74.3393159 364.305369,74.5686714 365.288336,75.0273893 C366.271302,75.4861071 367.096983,76.1414086 367.7654,76.9933132 C368.433817,77.8452179 368.9384,78.8674881 369.279161,80.0601547 C369.619923,81.2528212 369.790301,82.5961891 369.790301,84.0902988 C369.790301,85.7154708 369.554393,87.163687 369.082569,88.4349908 C368.610745,89.7062947 367.975102,90.7875421 367.175623,91.6787654 C366.376143,92.5699887 365.452168,93.2449492 364.40367,93.7036671 C363.355172,94.162385 362.254265,94.3917405 361.100917,94.3917405 C360.209694,94.3917405 359.246401,94.175491 358.211009,93.7429856 C357.175617,93.3104801 356.22543,92.7010498 355.360419,91.9146763 L355.439056,95.5319764 Z M355.439056,89.4376121 C356.356492,90.250198 357.273914,90.8268633 358.19135,91.1676252 C359.108786,91.508387 359.895147,91.6787654 360.550459,91.6787654 C362.280481,91.6787654 363.695931,91.0103579 364.796855,89.6735229 C365.897778,88.3366879 366.448231,86.4756318 366.448231,84.0902988 C366.448231,83.0418008 366.343382,82.0850607 366.133683,81.2200498 C365.923984,80.3550389 365.602885,79.6145483 365.17038,78.9985557 C364.737875,78.3825631 364.180869,77.9041931 363.499345,77.5634312 C362.817821,77.2226693 362.005247,77.052291 361.061599,77.052291 C360.2228,77.052291 359.325037,77.2816465 358.368283,77.7403644 C357.411529,78.1990822 356.435129,78.9264668 355.439056,79.92254 L355.439056,89.4376121 Z M380.249017,77.4454758 L374.862385,77.4454758 L374.862385,75.00773 L380.366972,74.8111376 L380.799476,69.4638244 L383.473132,69.4638244 L383.473132,74.8111376 L392.870249,74.8111376 L392.870249,77.4454758 L383.473132,77.4454758 L383.473132,86.5280446 C383.473132,87.3930554 383.551768,88.1466521 383.709043,88.7888571 C383.866318,89.4310622 384.128439,89.9749624 384.495413,90.420574 C384.862387,90.8661857 385.360416,91.2003894 385.989515,91.4231953 C386.618614,91.6460011 387.39187,91.7574024 388.309305,91.7574024 C389.226741,91.7574024 390.052421,91.6787662 390.78637,91.5214915 C391.520318,91.3642168 392.228044,91.1545203 392.909567,90.8923958 L393.6173,93.2515046 C392.75229,93.566054 391.795549,93.8347276 390.747051,94.0575334 C389.698553,94.2803393 388.650071,94.3917405 387.601573,94.3917405 C386.212313,94.3917405 385.045876,94.2017031 384.102228,93.8216225 C383.15858,93.441542 382.404983,92.9041948 381.841415,92.2095649 C381.277848,91.5149349 380.871561,90.6827021 380.622543,89.7128414 C380.373524,88.7429807 380.249017,87.6682864 380.249017,86.4887261 L380.249017,77.4454758 Z M404.351245,91.0889882 C404.351245,90.0929151 404.659237,89.2868943 405.275229,88.6709017 C405.891222,88.0549091 406.644819,87.7469174 407.536042,87.7469174 C408.427265,87.7469174 409.180862,88.0549091 409.796855,88.6709017 C410.412847,89.2868943 410.720839,90.0929151 410.720839,91.0889882 C410.720839,92.0850613 410.412847,92.8845291 409.796855,93.4874155 C409.180862,94.0903018 408.427265,94.3917405 407.536042,94.3917405 C406.644819,94.3917405 405.891222,94.0903018 405.275229,93.4874155 C404.659237,92.8845291 404.351245,92.0850613 404.351245,91.0889882 Z M422.477064,84.4048467 C422.477064,82.8058872 422.758844,81.383883 423.322412,80.1387916 C423.885979,78.8937002 424.652682,77.8386649 425.622543,76.973654 C426.592404,76.1086431 427.726074,75.4533417 429.023591,75.00773 C430.321108,74.5621183 431.690687,74.3393159 433.132372,74.3393159 C434.705119,74.3393159 436.061593,74.6145425 437.201835,75.1650039 C438.342077,75.7154654 439.30537,76.3707668 440.091743,77.1309279 L438.479685,79.2148073 C437.693312,78.5332836 436.874185,77.9959364 436.02228,77.6027497 C435.170376,77.2095629 434.2464,77.0129725 433.250328,77.0129725 C432.149404,77.0129725 431.14024,77.1899039 430.222805,77.543772 C429.305369,77.89764 428.525561,78.4022221 427.883355,79.0575334 C427.24115,79.7128447 426.736568,80.4926534 426.369594,81.396983 C426.00262,82.3013125 425.819135,83.3039237 425.819135,84.4048467 C425.819135,85.5057696 425.996066,86.5018278 426.349934,87.3930511 C426.703803,88.2842744 427.201831,89.0509771 427.844037,89.6931822 C428.486242,90.3353872 429.259497,90.8334163 430.163827,91.1872844 C431.068157,91.5411525 432.070767,91.7180839 433.171691,91.7180839 C434.351251,91.7180839 435.432498,91.4887284 436.415465,91.0300105 C437.398432,90.5712926 438.296195,90.0011803 439.108781,89.3196566 L440.524246,91.403536 C439.475748,92.3471843 438.302759,93.0811219 437.005242,93.6053709 C435.707726,94.1296199 434.351252,94.3917405 432.93578,94.3917405 C431.44167,94.3917405 430.058984,94.168938 428.78768,93.7233263 C427.516376,93.2777147 426.408917,92.6289663 425.465269,91.7770616 C424.52162,90.9251569 423.787683,89.8766746 423.263434,88.6315832 C422.739185,87.3864918 422.477064,85.9775937 422.477064,84.4048467 Z M445.281782,84.4048467 C445.281782,82.8058872 445.53735,81.383883 446.048493,80.1387916 C446.559636,78.8937002 447.247702,77.8386649 448.112713,76.973654 C448.977723,76.1086431 449.980335,75.4533417 451.120577,75.00773 C452.260818,74.5621183 453.46002,74.3393159 454.718218,74.3393159 C455.976415,74.3393159 457.175617,74.5621183 458.315858,75.00773 C459.4561,75.4533417 460.458712,76.1086431 461.323722,76.973654 C462.188733,77.8386649 462.876799,78.8937002 463.387942,80.1387916 C463.899086,81.383883 464.154653,82.8058872 464.154653,84.4048467 C464.154653,85.9775937 463.899086,87.3864918 463.387942,88.6315832 C462.876799,89.8766746 462.188733,90.9251569 461.323722,91.7770616 C460.458712,92.6289663 459.4561,93.2777147 458.315858,93.7233263 C457.175617,94.168938 455.976415,94.3917405 454.718218,94.3917405 C453.46002,94.3917405 452.260818,94.168938 451.120577,93.7233263 C449.980335,93.2777147 448.977723,92.6289663 448.112713,91.7770616 C447.247702,90.9251569 446.559636,89.8766746 446.048493,88.6315832 C445.53735,87.3864918 445.281782,85.9775937 445.281782,84.4048467 Z M448.623853,84.4048467 C448.623853,85.5057696 448.768019,86.5018278 449.056356,87.3930511 C449.344694,88.2842744 449.757534,89.0509771 450.294889,89.6931822 C450.832243,90.3353872 451.474439,90.8334163 452.221494,91.1872844 C452.968549,91.5411525 453.800782,91.7180839 454.718218,91.7180839 C455.635653,91.7180839 456.467886,91.5411525 457.214941,91.1872844 C457.961996,90.8334163 458.604192,90.3353872 459.141547,89.6931822 C459.678901,89.0509771 460.091741,88.2842744 460.380079,87.3930511 C460.668416,86.5018278 460.812582,85.5057696 460.812582,84.4048467 C460.812582,83.3039237 460.668416,82.3013125 460.380079,81.396983 C460.091741,80.4926534 459.678901,79.7128447 459.141547,79.0575334 C458.604192,78.4022221 457.961996,77.89764 457.214941,77.543772 C456.467886,77.1899039 455.635653,77.0129725 454.718218,77.0129725 C453.800782,77.0129725 452.968549,77.1899039 452.221494,77.543772 C451.474439,77.89764 450.832243,78.4022221 450.294889,79.0575334 C449.757534,79.7128447 449.344694,80.4926534 449.056356,81.396983 C448.768019,82.3013125 448.623853,83.3039237 448.623853,84.4048467 Z" id="by-krypt.co" fill-opacity="0.385954484" fill="#4A4A4A"></path>
            </g>
            <g id="Kryptonite_Icon_WhiteOnGreen">
                <g id="Icon">
                    <g id="Logo-corrections">
                        <g id="Kryptonite_Icon_WhiteOnGreen">
                            <g id="Group">
                                <path d="M51.2418137,0 C84.6603878,0 102.483627,22.305676 102.483627,22.305676 L102.483627,73.6087307 C102.483627,102.606109 64.6092433,113.758947 51.2418137,115.989515 L51.2418137,0 L51.2418137,0 Z M51.2418137,0 C17.8232394,0 -8.27488601e-15,22.305676 0,22.305676 C0,44.6113537 8.27488601e-15,44.611352 0,73.6087307 C-8.27488601e-15,102.606109 37.874384,113.758947 51.2418137,115.989515 L51.2418137,0 L51.2418137,0 Z" id="Combined-Shape" fill="#5BC894"></path>
                                <ellipse id="Oval-Copy" fill="#FFFFFF" cx="51.2418137" cy="55.6658938" rx="28.9627643" ry="28.9973788"></ellipse>
                                <ellipse id="Oval-Copy-2" fill="#5BC894" cx="51.2418137" cy="55.6658938" rx="20.0511444" ry="20.0751084"></ellipse>
                            </g>
                        </g>
                    </g>
                </g>
            </g>
        </g>
    </g>
</svg>