<?xml version="1.0" encoding="UTF-8"?>
<svg width="40px" height="40px" viewBox="0 0 40 40" version="1.1" xmlns="http://www.w3.org/2000/svg" xmlns:xlink="http://www.w3.org/1999/xlink">
    <!-- Generator: Sketch 48.2 (47327) - http://www.bohemiancoding.com/sketch -->
    <title>Team icon Copy 5</title>
    <desc>Created with Sketch.</desc>
    <defs></defs>
    <g id="Page-1" stroke="none" stroke-width="1" fill="none" fill-rule="evenodd">
        <g id="Team-icon-Copy-5">
            <g id="Group" transform="translate(20.000000, 20.500000) rotate(-45.000000) translate(-20.000000, -20.500000) translate(8.000000, 17.000000)">
                <path d="M10.3726554,1.5 L3.5,1.5 C2.3954305,1.5 1.5,2.3954305 1.5,3.5 C1.5,4.6045695 2.3954305,5.5 3.5,5.5 L10.3726554,5.5 C9.74018229,6.40674205 8.68937256,7 7.5,7 L3.5,7 C1.56700338,7 6.80813023e-16,5.43299662 4.4408921e-16,3.5 C2.07365397e-16,1.56700338 1.56700338,7.99174929e-16 3.5,4.4408921e-16 L7.5,4.4408921e-16 C8.68937256,2.25605016e-16 9.74018229,0.593257951 10.3726554,1.5 Z M13.6273446,5.5 L20.5,5.5 C21.6045695,5.5 22.5,4.6045695 22.5,3.5 C22.5,2.3954305 21.6045695,1.5 20.5,1.5 L13.6273446,1.5 C14.2598177,0.593257951 15.3106274,6.62573404e-16 16.5,4.4408921e-16 L20.5,4.4408921e-16 C22.4329966,8.90034905e-17 24,1.56700338 24,3.5 C24,5.43299662 22.4329966,7 20.5,7 L16.5,7 C15.3106274,7 14.2598177,6.40674205 13.6273446,5.5 Z" id="Combined-Shape" fill="#F5F5F5"></path>
                <rect id="Rectangle-5" stroke="#F5F5F5" x="7" y="3" width="9.5" height="1" rx="0.5"></rect>
            </g>
        </g>
    </g>
</svg>