<?xml version="1.0" encoding="UTF-8"?>
<svg width="26px" height="46px" viewBox="0 0 26 46" version="1.1" xmlns="http://www.w3.org/2000/svg" xmlns:xlink="http://www.w3.org/1999/xlink">
    <!-- Generator: Sketch 48.2 (47327) - http://www.bohemiancoding.com/sketch -->
    <title>Icon - Check Phone</title>
    <desc>Created with Sketch.</desc>
    <defs>
        <path d="M13,45 C11.6192881,45 10.5,43.8807119 10.5,42.5 C10.5,41.1192881 11.6192881,40 13,40 C14.3807119,40 15.5,41.1192881 15.5,42.5 C15.5,43.8807119 14.3807119,45 13,45 Z M9.5,2 L16.5,2 C16.7761424,2 17,2.22385763 17,2.5 C17,2.77614237 16.7761424,3 16.5,3 L9.5,3 C9.22385763,3 9,2.77614237 9,2.5 C9,2.22385763 9.22385763,2 9.5,2 Z M2,5 L24,5 L24,38 L2,38 L2,5 Z M3,0 L23,0 C24.6568542,-3.04359188e-16 26,1.34314575 26,3 L26,43 C26,44.6568542 24.6568542,46 23,46 L3,46 C1.34314575,46 2.02906125e-16,44.6568542 0,43 L0,3 C-2.02906125e-16,1.34314575 1.34314575,3.04359188e-16 3,0 Z" id="path-1"></path>
    </defs>
    <g id="Symbols" stroke="none" stroke-width="1" fill="none" fill-rule="evenodd">
        <g id="Icon---Check-Phone">
            <g id="Rectangle-8-+-Rectangle-9-+-Oval-Mask">
                <mask id="mask-2" fill="white">
                    <use xlink:href="#path-1"></use>
                </mask>
                <use id="Mask" fill="#F8A843" xlink:href="#path-1"></use>
            </g>
            <g id="Group-3" transform="translate(11.000000, 14.000000)" fill="#F8A843">
                <rect id="Rectangle-23" x="0" y="0" width="4" height="12" rx="2"></rect>
                <rect id="Rectangle-23-Copy" x="0" y="13" width="4" height="4" rx="2"></rect>
            </g>
        </g>
    </g>
</svg>