<?xml version="1.0" encoding="UTF-8"?>
<svg width="16px" height="16px" viewBox="0 0 16 16" version="1.1" xmlns="http://www.w3.org/2000/svg" xmlns:xlink="http://www.w3.org/1999/xlink">
    <!-- Generator: Sketch 48.2 (47327) - http://www.bohemiancoding.com/sketch -->
    <title>np_search_894550_000000</title>
    <desc>Created with Sketch.</desc>
    <defs></defs>
    <g id="KRT_TeamPage" stroke="none" stroke-width="1" fill="none" fill-rule="evenodd" transform="translate(-1222.000000, -109.000000)">
        <g id="Search" transform="translate(1210.000000, 98.000000)" fill="#969399" fill-rule="nonzero">
            <g id="np_search_894550_000000" transform="translate(12.000000, 11.000000)">
                <path d="M6.63615552,0.00013657862 C2.98584079,0.00013657862 0,2.97950162 0,6.63005303 C0,10.2800191 2.98662115,13.2669935 6.63615552,13.2669935 C8.03912027,13.2669935 9.33911692,12.8173182 10.4107421,12.0711697 L13.9986283,15.6524562 C14.4550981,16.1158479 15.2011779,16.1158479 15.6576477,15.6524562 C16.1141174,15.1959324 16.1141174,14.4566323 15.6576477,14.000089 L12.0689811,10.4117784 C12.8226694,9.33333415 13.2646635,8.03374955 13.2646635,6.62991645 C13.2646635,2.97995038 10.2780424,0 6.63553124,0 L6.63615552,0.00013657862 Z M6.63615552,2.33699677 C9.01390316,2.33699677 10.922071,4.24542934 10.922071,6.63024814 C10.922071,9.01510596 9.01386414,10.9234995 6.63615552,10.9234995 C4.25157977,10.9234995 2.34341193,9.01506694 2.34341193,6.63024814 C2.34341193,4.24539032 4.25161878,2.33699677 6.63615552,2.33699677 Z" id="Shape"></path>
            </g>
        </g>
    </g>
</svg>