<?xml version="1.0" encoding="UTF-8"?>
<svg width="40px" height="40px" viewBox="0 0 40 40" version="1.1" xmlns="http://www.w3.org/2000/svg" xmlns:xlink="http://www.w3.org/1999/xlink">
    <!-- Generator: Sketch 48.2 (47327) - http://www.bohemiancoding.com/sketch -->
    <title>Team icon Copy 2</title>
    <desc>Created with Sketch.</desc>
    <defs></defs>
    <g id="Page-1" stroke="none" stroke-width="1" fill="none" fill-rule="evenodd">
        <g id="Team-icon-Copy-2" fill="#F5F5F5">
            <path d="M12.0386371,24.6986191 C12.3763536,22.2514639 14.8925826,20.25916 18.1891359,19.7164385 C18.413509,19.53487 18.6162513,19.3533263 18.6162513,19.1939632 C18.6162513,18.5733578 17.9307979,18.1861874 17.8036637,17.9563824 C16.717167,17.0841857 16,15.5834709 16,13.8784662 C16,11.1841637 17.790861,9 20,9 C22.209139,9 24,11.1841637 24,13.8784662 C24,15.5834709 23.282833,17.0841857 22.1963363,17.9563824 C22.0692021,18.1861874 21.3837487,18.5733578 21.3837487,19.1939632 C21.3837487,19.3509396 21.597334,19.5344394 21.8286714,19.7193856 C25.0436191,20.2542189 27.5127287,22.1684058 27.9357698,24.5369063 C24.783419,24.3538971 22.804829,24.5082616 22,25 C20.4070774,25.9732516 21.4697536,26.8769408 20,26.8769408 C18.5302464,26.8769408 19.6604276,25.9685042 18,25 C17.4190375,24.6611327 15.4319165,24.5606724 12.0386371,24.6986191 Z" id="User-Icon"></path>
            <path d="M27.680149,17.0799029 C30.7887717,17.5255062 33.1297372,19.4794187 33.1297372,21.822321 C33.1297372,22.7191175 31.9567248,22.8970727 29.8589405,23.0113391 C28.8960035,23.0637903 28.8059729,21.4313103 26.6022607,20.1567617 C25.2912266,19.3985063 24.1377927,19.2545289 23.7226196,19.0003735 C23.3074464,18.7462181 23.4618586,18.4856965 24.2796272,17.7569325 C24.4862018,17.5032229 24.6620687,17.3225299 24.8185335,17.1952631 C24.9295183,17.0103853 25.088907,16.8219724 25.1535508,16.6648687 C25.3184766,16.2640499 25.4722622,15.8226617 25.6178548,15.5016621 C25.7147697,14.883798 25.885893,13.9792764 25.7701377,12.6412848 C25.6936443,11.7571135 25.2406768,10.7804548 24.6807899,10.0697122 C24.4269705,9.74750392 24.0206845,9.53744743 23.8461497,9.31469673 C24.4666206,8.50565081 25.3497616,8 26.3297372,8 C28.2075054,8 29.7297372,9.85653917 29.7297372,12.1466963 C29.7297372,13.5959503 29.1201453,14.8715578 28.1966231,15.6129251 C28.088559,15.8082593 27.5059237,16.1373541 27.5059237,16.6648687 C27.5059237,16.7893333 27.590994,16.9334549 27.680149,17.0799029 Z" id="User-Icon-Copy"></path>
            <path d="M15.3112038,17.1952631 C15.4676685,17.3225299 15.6435354,17.5032229 15.85011,17.7569325 C16.6678786,18.4856965 16.8222908,18.7462181 16.4071177,19.0003735 C15.9919445,19.2545289 14.8385106,19.3985063 13.5274765,20.1567617 C11.3237644,21.4313103 11.2337338,23.0637903 10.2707968,23.0113391 C8.17301247,22.8970727 7,22.7191175 7,21.822321 C7,19.4794187 9.34096558,17.5255062 12.4495883,17.0799029 C12.5387433,16.9334549 12.6238136,16.7893333 12.6238136,16.6648687 C12.6238136,16.1373541 12.0411782,15.8082593 11.9331141,15.6129251 C11.009592,14.8715578 10.4,13.5959503 10.4,12.1466963 C10.4,9.85653917 11.9222319,8 13.8,8 C14.7799756,8 15.6631166,8.50565081 16.2835875,9.31469673 C16.1090527,9.53744743 15.7027667,9.74750392 15.4489473,10.0697122 C14.8890604,10.7804548 14.4360929,11.7571135 14.3595995,12.6412848 C14.2438442,13.9792764 14.4149675,14.883798 14.5118824,15.5016621 C14.6574751,15.8226617 14.8112606,16.2640499 14.9761864,16.6648687 C15.0408302,16.8219724 15.2002189,17.0103853 15.3112038,17.1952631 Z" id="User-Icon-Copy"></path>
            <g id="Group" transform="translate(8.000000, 26.000000)">
                <path d="M10.3726554,1.5 L3.5,1.5 C2.3954305,1.5 1.5,2.3954305 1.5,3.5 C1.5,4.6045695 2.3954305,5.5 3.5,5.5 L10.3726554,5.5 C9.74018229,6.40674205 8.68937256,7 7.5,7 L3.5,7 C1.56700338,7 6.80813023e-16,5.43299662 4.4408921e-16,3.5 C2.07365397e-16,1.56700338 1.56700338,7.99174929e-16 3.5,4.4408921e-16 L7.5,4.4408921e-16 C8.68937256,2.25605016e-16 9.74018229,0.593257951 10.3726554,1.5 Z M13.6273446,5.5 L20.5,5.5 C21.6045695,5.5 22.5,4.6045695 22.5,3.5 C22.5,2.3954305 21.6045695,1.5 20.5,1.5 L13.6273446,1.5 C14.2598177,0.593257951 15.3106274,6.62573404e-16 16.5,4.4408921e-16 L20.5,4.4408921e-16 C22.4329966,8.90034905e-17 24,1.56700338 24,3.5 C24,5.43299662 22.4329966,7 20.5,7 L16.5,7 C15.3106274,7 14.2598177,6.40674205 13.6273446,5.5 Z" id="Combined-Shape"></path>
                <rect id="Rectangle-5" x="6.5" y="2.5" width="10.5" height="2" rx="1"></rect>
            </g>
        </g>
    </g>
</svg>